<svg width="512" height="512" viewBox="0 0 512 512" fill="none" xmlns="http://www.w3.org/2000/svg">
  <!-- Fond circulaire avec gradient -->
  <defs>
    <linearGradient id="bgGradient" x1="0%" y1="0%" x2="100%" y2="100%">
      <stop offset="0%" style="stop-color:#F8F9FA;stop-opacity:1" />
      <stop offset="100%" style="stop-color:#E5E7EB;stop-opacity:1" />
    </linearGradient>
    <linearGradient id="shieldGradient" x1="0%" y1="0%" x2="100%" y2="100%">
      <stop offset="0%" style="stop-color:#2563EB;stop-opacity:1" />
      <stop offset="100%" style="stop-color:#1D4ED8;stop-opacity:1" />
    </linearGradient>
  </defs>
  
  <!-- Cercle de fond -->
  <circle cx="256" cy="256" r="240" fill="url(#bgGradient)" stroke="#E5E7EB" stroke-width="2"/>
  
  <!-- Bouclier/Radar - Forme de bouclier stylisée -->
  <path d="M 256 120 L 180 140 L 180 220 C 180 280 220 320 256 360 C 292 320 332 280 332 220 L 332 140 Z" 
        fill="url(#shieldGradient)" 
        opacity="0.9"
        transform="translate(256, 256) rotate(-15) translate(-256, -256)"/>
  
  <!-- Onde radar concentrique -->
  <circle cx="256" cy="240" r="80" fill="none" stroke="#2563EB" stroke-width="3" opacity="0.3"/>
  <circle cx="256" cy="240" r="120" fill="none" stroke="#2563EB" stroke-width="2" opacity="0.2"/>
  <circle cx="256" cy="240" r="160" fill="none" stroke="#2563EB" stroke-width="1.5" opacity="0.15"/>
  
  <!-- Ligne radar (sweep) -->
  <line x1="256" y1="240" x2="256" y2="100" 
        stroke="#2563EB" 
        stroke-width="3" 
        stroke-linecap="round"
        opacity="0.4"
        transform="translate(256, 240) rotate(45) translate(-256, -240)"/>
  
  <!-- Lettre X stylisée au centre -->
  <g transform="translate(256, 280)">
    <path d="M -40 -40 L 40 40 M 40 -40 L -40 40" 
          stroke="white" 
          stroke-width="16" 
          stroke-linecap="round" 
          stroke-linejoin="round"
          opacity="0.95"/>
    <path d="M -40 -40 L 40 40 M 40 -40 L -40 40" 
          stroke="#2563EB" 
          stroke-width="12" 
          stroke-linecap="round" 
          stroke-linejoin="round"
          opacity="0.8"/>
  </g>
  
  <!-- Point central (radar center) -->
  <circle cx="256" cy="240" r="8" fill="#2563EB" opacity="0.9"/>
  <circle cx="256" cy="240" r="4" fill="white"/>
</svg>

